<svg width="250" height="150" viewBox="0 0 250 150" fill="none" xmlns="http://www.w3.org/2000/svg">
<g clip-path="url(#clip0_1_2)">
<path fill-rule="evenodd" clip-rule="evenodd" d="M43.3103 123C28.911 123 15.8041 117.97 6 109.736C7.42411 109.463 8.3225 108.676 8.71086 108.285C8.76532 108.231 8.81779 108.175 8.86832 108.12C9.61182 108.852 10.8039 108.916 11.6241 108.235C18.7492 102.323 25.4742 96.2291 30.4887 87.5619C35.7815 78.414 39.9778 67.6708 41.8542 56.9586C43.7836 45.9436 43.6226 34.962 43.463 24.0796V24.0795L43.4629 24.0784L43.4629 24.0775L43.4629 24.0764L43.4629 24.0754C43.4511 23.2683 43.4392 22.4618 43.4283 21.6558C43.3886 18.7414 43.1646 15.8457 42.9022 13.0019C43.0381 13.0007 43.1741 13 43.3103 13C73.6859 13 98.3103 45.3858 98.3103 73C98.3103 100.614 73.6859 123 43.3103 123ZM66.8103 51C70.9524 51 74.3103 47.6421 74.3103 43.5C74.3103 39.3579 70.9524 36 66.8103 36C62.6681 36 59.3103 39.3579 59.3103 43.5C59.3103 47.6421 62.6681 51 66.8103 51Z" fill="#8BCB98"/>
<path d="M122.572 99.6001C120.31 99.6001 118.302 99.2231 116.548 98.4691C114.809 97.6997 113.432 96.5456 112.416 95.0067C111.416 93.4525 110.916 91.5059 110.916 89.1669C110.916 87.1972 111.262 85.5353 111.955 84.1811C112.647 82.8269 113.601 81.7267 114.817 80.8803C116.032 80.034 117.433 79.3954 119.018 78.9645C120.603 78.5182 122.295 78.2182 124.096 78.0643C126.112 77.8796 127.735 77.6873 128.966 77.4872C130.197 77.2718 131.09 76.9717 131.644 76.587C132.213 76.1869 132.498 75.6252 132.498 74.902V74.7866C132.498 73.6017 132.09 72.6861 131.275 72.0398C130.459 71.3935 129.359 71.0703 127.974 71.0703C126.481 71.0703 125.281 71.3935 124.373 72.0398C123.465 72.6861 122.888 73.5786 122.642 74.7173L112.232 74.348C112.539 72.1937 113.332 70.2701 114.609 68.5774C115.902 66.8693 117.671 65.5305 119.918 64.5611C122.18 63.5762 124.896 63.0838 128.066 63.0838C130.328 63.0838 132.413 63.3531 134.321 63.8917C136.23 64.4149 137.891 65.1843 139.307 66.1999C140.723 67.2002 141.815 68.4312 142.585 69.8931C143.37 71.355 143.762 73.0246 143.762 74.902V99H133.144V94.0604H132.867C132.236 95.2607 131.428 96.2763 130.444 97.1072C129.474 97.9382 128.328 98.5614 127.004 98.9769C125.696 99.3924 124.219 99.6001 122.572 99.6001ZM126.058 92.2138C127.274 92.2138 128.366 91.9676 129.336 91.4751C130.32 90.9827 131.105 90.3056 131.69 89.4439C132.275 88.5668 132.567 87.5511 132.567 86.397V83.027C132.244 83.1963 131.852 83.3501 131.39 83.4886C130.944 83.6271 130.451 83.7579 129.913 83.881C129.374 84.0041 128.82 84.1119 128.251 84.2042C127.681 84.2965 127.135 84.3812 126.612 84.4581C125.55 84.6274 124.642 84.889 123.888 85.2429C123.15 85.5968 122.58 86.0585 122.18 86.6278C121.795 87.1818 121.603 87.8435 121.603 88.6129C121.603 89.7824 122.018 90.675 122.849 91.2905C123.696 91.906 124.765 92.2138 126.058 92.2138ZM163.613 99.5078C160.997 99.5078 158.619 98.8307 156.48 97.4766C154.342 96.1224 152.633 94.0911 151.356 91.3828C150.079 88.6745 149.44 85.3121 149.44 81.2958C149.44 77.1256 150.102 73.694 151.425 71.0011C152.749 68.3081 154.48 66.3153 156.619 65.0227C158.773 63.7301 161.089 63.0838 163.567 63.0838C165.429 63.0838 167.021 63.407 168.345 64.0533C169.668 64.6842 170.761 65.4998 171.623 66.5C172.484 67.5002 173.138 68.5389 173.585 69.6161H173.815V51.7273H185.103V99H173.931V93.2525H173.585C173.107 94.3451 172.43 95.3684 171.553 96.3224C170.676 97.2765 169.576 98.0459 168.252 98.6307C166.944 99.2154 165.398 99.5078 163.613 99.5078ZM167.537 90.7134C168.906 90.7134 170.076 90.3287 171.045 89.5593C172.015 88.7745 172.761 87.6742 173.284 86.2585C173.808 84.8428 174.069 83.1809 174.069 81.2727C174.069 79.3338 173.808 77.6642 173.284 76.2638C172.777 74.8635 172.03 73.7863 171.045 73.0323C170.076 72.2783 168.906 71.9013 167.537 71.9013C166.137 71.9013 164.952 72.286 163.982 73.0554C163.013 73.8248 162.274 74.9097 161.766 76.31C161.274 77.7103 161.028 79.3646 161.028 81.2727C161.028 83.1809 161.282 84.8428 161.789 86.2585C162.297 87.6742 163.028 88.7745 163.982 89.5593C164.952 90.3287 166.137 90.7134 167.537 90.7134ZM208.814 99.6694C205.105 99.6694 201.905 98.9384 199.212 97.4766C196.534 95.9993 194.472 93.8988 193.026 91.1751C191.595 88.436 190.879 85.1813 190.879 81.4112C190.879 77.7488 191.602 74.5481 193.049 71.8089C194.495 69.0544 196.534 66.9155 199.166 65.392C201.797 63.8532 204.898 63.0838 208.468 63.0838C210.991 63.0838 213.3 63.4762 215.392 64.261C217.485 65.0458 219.293 66.2076 220.817 67.7464C222.34 69.2853 223.525 71.1857 224.372 73.4478C225.218 75.6945 225.641 78.272 225.641 81.1804V83.9964H194.826V77.441H215.139C215.123 76.2408 214.839 75.1713 214.285 74.2326C213.731 73.2939 212.969 72.563 211.999 72.0398C211.045 71.5012 209.945 71.2319 208.699 71.2319C207.437 71.2319 206.306 71.5166 205.305 72.0859C204.305 72.6399 203.513 73.4016 202.928 74.3711C202.343 75.3252 202.035 76.41 202.005 77.6257V84.2965C202.005 85.743 202.289 87.0125 202.859 88.1051C203.428 89.1823 204.236 90.021 205.282 90.6211C206.329 91.2212 207.575 91.5213 209.022 91.5213C210.022 91.5213 210.93 91.3828 211.745 91.1058C212.561 90.8288 213.261 90.421 213.846 89.8825C214.431 89.3439 214.869 88.6822 215.162 87.8974L225.526 88.1974C225.095 90.5211 224.148 92.5446 222.687 94.2681C221.24 95.9762 219.34 97.3073 216.985 98.2614C214.631 99.2 211.907 99.6694 208.814 99.6694Z" fill="#8BCB98"/>
<path d="M116.548 98.4691L116.143 99.3836L116.153 99.3878L116.548 98.4691ZM112.416 95.0067L111.575 95.548L111.582 95.5576L112.416 95.0067ZM111.955 84.1811L111.064 83.7258H111.064L111.955 84.1811ZM114.817 80.8803L115.388 81.701H115.388L114.817 80.8803ZM119.018 78.9645L119.28 79.9295L119.289 79.9271L119.018 78.9645ZM124.096 78.0643L124.181 79.0607L124.187 79.0601L124.096 78.0643ZM128.966 77.4872L129.127 78.4743L129.139 78.4722L128.966 77.4872ZM131.644 76.587L132.214 77.4084L132.219 77.4052L131.644 76.587ZM131.275 72.0398L131.896 71.256L131.275 72.0398ZM124.373 72.0398L123.793 71.2251H123.793L124.373 72.0398ZM122.642 74.7173L122.606 75.7167L123.442 75.7464L123.619 74.9287L122.642 74.7173ZM112.232 74.348L111.242 74.2066L111.084 75.3079L112.196 75.3474L112.232 74.348ZM114.609 68.5774L113.812 67.974L113.811 67.9751L114.609 68.5774ZM119.918 64.5611L120.314 65.4792L120.317 65.478L119.918 64.5611ZM134.321 63.8917L134.05 64.8541L134.057 64.8561L134.321 63.8917ZM139.307 66.1999L138.724 67.0125L138.73 67.0166L139.307 66.1999ZM142.585 69.8931L141.7 70.3589L141.704 70.3661L142.585 69.8931ZM143.762 99V100H144.762V99H143.762ZM133.144 99H132.144V100H133.144V99ZM133.144 94.0604H134.144V93.0604H133.144V94.0604ZM132.867 94.0604V93.0604H132.263L131.982 93.5951L132.867 94.0604ZM130.444 97.1072L129.799 96.3429L129.793 96.348L130.444 97.1072ZM127.004 98.9769L126.705 98.0228L126.702 98.0238L127.004 98.9769ZM129.336 91.4751L128.888 90.5807L128.883 90.5836L129.336 91.4751ZM131.69 89.4439L132.517 90.0054L132.522 89.9986L131.69 89.4439ZM132.567 83.027H133.567V81.3743L132.103 82.1412L132.567 83.027ZM131.39 83.4886L131.103 82.5308L131.094 82.5336L131.39 83.4886ZM128.251 84.2042L128.411 85.1913L128.251 84.2042ZM126.612 84.4581L126.466 83.4687L126.454 83.4706L126.612 84.4581ZM123.888 85.2429L123.463 84.3376L123.456 84.3411L123.888 85.2429ZM122.18 86.6278L121.362 86.0529L121.359 86.0574L122.18 86.6278ZM122.849 91.2905L122.254 92.0941L122.261 92.0992L122.849 91.2905ZM122.572 98.6001C120.421 98.6001 118.552 98.2418 116.943 97.5504L116.153 99.3878C118.053 100.204 120.199 100.6 122.572 100.6V98.6001ZM116.953 97.5546C115.383 96.8602 114.157 95.8296 113.251 94.4559L111.582 95.5576C112.706 97.2615 114.235 98.5392 116.143 99.3836L116.953 97.5546ZM113.257 94.4656C112.385 93.1106 111.916 91.3647 111.916 89.1669H109.916C109.916 91.6472 110.447 93.7944 111.575 95.5479L113.257 94.4656ZM111.916 89.1669C111.916 87.3103 112.243 85.8143 112.845 84.6364L111.064 83.7258C110.282 85.2563 109.916 87.0841 109.916 89.1669H111.916ZM112.845 84.6364C113.465 83.4243 114.311 82.451 115.388 81.701L114.245 80.0596C112.891 81.0023 111.829 82.2296 111.064 83.7258L112.845 84.6364ZM115.388 81.701C116.5 80.9268 117.794 80.3335 119.28 79.9295L118.755 77.9995C117.072 78.4572 115.565 79.1411 114.245 80.0596L115.388 81.701ZM119.289 79.9271C120.807 79.4995 122.437 79.2097 124.181 79.0606L124.011 77.0679C122.153 77.2267 120.398 77.537 118.747 78.0019L119.289 79.9271ZM124.187 79.0601C126.214 78.8745 127.863 78.6796 129.127 78.4743L128.806 76.5002C127.607 76.6949 126.01 76.8848 124.005 77.0684L124.187 79.0601ZM129.139 78.4722C130.411 78.2496 131.478 77.9194 132.214 77.4084L131.073 75.7656C130.701 76.024 129.984 76.294 128.794 76.5022L129.139 78.4722ZM132.219 77.4052C133.067 76.8093 133.498 75.9357 133.498 74.902H131.498C131.498 75.3148 131.36 75.5645 131.069 75.7688L132.219 77.4052ZM133.498 74.902V74.7866H131.498V74.902H133.498ZM133.498 74.7866C133.498 73.3442 132.986 72.1199 131.896 71.256L130.653 72.8235C131.194 73.2523 131.498 73.8592 131.498 74.7866H133.498ZM131.896 71.256C130.853 70.4295 129.51 70.0703 127.974 70.0703V72.0703C129.208 72.0703 130.065 72.3575 130.653 72.8235L131.896 71.256ZM127.974 70.0703C126.343 70.0703 124.919 70.4234 123.793 71.2251L124.953 72.8544C125.642 72.3636 126.619 72.0703 127.974 72.0703V70.0703ZM123.793 71.2251C122.672 72.023 121.961 73.1358 121.664 74.506L123.619 74.9287C123.815 74.0214 124.258 73.3491 124.953 72.8544L123.793 71.2251ZM122.677 73.718L112.267 73.3486L112.196 75.3474L122.606 75.7167L122.677 73.718ZM113.221 74.4894C113.506 72.4979 114.235 70.7338 115.407 69.1797L113.811 67.9751C112.429 69.8064 111.573 71.8895 111.242 74.2066L113.221 74.4894ZM115.406 69.1809C116.581 67.6292 118.203 66.3901 120.314 65.4792L119.522 63.6429C117.139 64.671 115.223 66.1094 113.812 67.974L115.406 69.1809ZM120.317 65.478C122.423 64.5612 124.996 64.0838 128.066 64.0838V62.0838C124.796 62.0838 121.937 62.5913 119.519 63.6442L120.317 65.478ZM128.066 64.0838C130.249 64.0838 132.241 64.3437 134.05 64.8541L134.593 62.9293C132.585 62.3625 130.407 62.0838 128.066 62.0838V64.0838ZM134.057 64.8561C135.866 65.3522 137.417 66.0746 138.724 67.0125L139.89 65.3874C138.366 64.294 136.593 63.4776 134.586 62.9273L134.057 64.8561ZM138.73 67.0166C140.024 67.9305 141.008 69.0435 141.7 70.3589L143.47 69.4274C142.623 67.8189 141.422 66.4699 139.884 65.3832L138.73 67.0166ZM141.704 70.3661C142.401 71.6643 142.762 73.1677 142.762 74.902H144.762C144.762 72.8815 144.339 71.0456 143.466 69.4201L141.704 70.3661ZM142.762 74.902V99H144.762V74.902H142.762ZM143.762 98H133.144V100H143.762V98ZM134.144 99V94.0604H132.144V99H134.144ZM133.144 93.0604H132.867V95.0604H133.144V93.0604ZM131.982 93.5951C131.408 94.6872 130.68 95.5995 129.799 96.343L131.088 97.8715C132.177 96.953 133.065 95.8341 133.752 94.5256L131.982 93.5951ZM129.793 96.348C128.935 97.0836 127.91 97.6443 126.705 98.0228L127.304 99.931C128.745 99.4785 130.014 98.7929 131.094 97.8665L129.793 96.348ZM126.702 98.0238C125.509 98.4027 124.136 98.6001 122.572 98.6001V100.6C124.302 100.6 125.884 100.382 127.307 99.93L126.702 98.0238ZM126.058 93.2138C127.412 93.2138 128.663 92.9385 129.788 92.3667L128.883 90.5836C128.069 90.9967 127.135 91.2138 126.058 91.2138V93.2138ZM129.783 92.3696C130.912 91.8051 131.831 91.017 132.517 90.0054L130.863 88.8824C130.379 89.5942 129.729 90.1603 128.888 90.5807L129.783 92.3696ZM132.522 89.9986C133.227 88.9417 133.567 87.729 133.567 86.397H131.567C131.567 87.3732 131.323 88.1919 130.858 88.8892L132.522 89.9986ZM133.567 86.397V83.027H131.567V86.397H133.567ZM132.103 82.1412C131.851 82.2732 131.521 82.4052 131.103 82.5308L131.677 84.4465C132.182 84.2951 132.637 84.1193 133.031 83.9128L132.103 82.1412ZM131.094 82.5336C130.675 82.6633 130.208 82.7877 129.69 82.9062L130.135 84.8559C130.695 84.7281 131.212 84.5909 131.686 84.4437L131.094 82.5336ZM129.69 82.9062C129.173 83.0243 128.64 83.128 128.091 83.2171L128.411 85.1913C129 85.0957 129.575 84.984 130.135 84.8559L129.69 82.9062ZM128.091 83.2171C127.526 83.3087 126.984 83.3926 126.466 83.4687L126.757 85.4475C127.286 85.3697 127.837 85.2843 128.411 85.1913L128.091 83.2171ZM126.454 83.4706C125.325 83.6506 124.323 83.9343 123.463 84.3377L124.313 86.1481C124.962 85.8436 125.775 85.6042 126.769 85.4456L126.454 83.4706ZM123.456 84.3411C122.59 84.7559 121.877 85.3203 121.362 86.0529L122.998 87.2028C123.284 86.7967 123.709 86.4377 124.32 86.1447L123.456 84.3411ZM121.359 86.0574C120.842 86.8018 120.603 87.6693 120.603 88.6129H122.603C122.603 88.0177 122.749 87.5619 123.001 87.1982L121.359 86.0574ZM120.603 88.6129C120.603 90.0517 121.133 91.2633 122.254 92.094L123.445 90.4869C122.904 90.0866 122.603 89.5132 122.603 88.6129H120.603ZM122.261 92.0992C123.315 92.8658 124.604 93.2138 126.058 93.2138V91.2138C124.926 91.2138 124.076 90.9463 123.438 90.4817L122.261 92.0992ZM156.48 97.4766L155.946 98.3215L156.48 97.4766ZM151.356 91.3828L150.452 91.8094L151.356 91.3828ZM151.425 71.0011L152.323 71.4421L151.425 71.0011ZM156.619 65.0227L156.104 64.1652L156.102 64.1669L156.619 65.0227ZM168.345 64.0533L167.906 64.9519L167.914 64.9559L168.345 64.0533ZM171.623 66.5L172.38 65.8473V65.8473L171.623 66.5ZM173.585 69.6161L172.661 69.9989L172.916 70.6161H173.585V69.6161ZM173.815 69.6161V70.6161H174.815V69.6161H173.815ZM173.815 51.7273V50.7273H172.815V51.7273H173.815ZM185.103 51.7273H186.103V50.7273H185.103V51.7273ZM185.103 99V100H186.103V99H185.103ZM173.931 99H172.931V100H173.931V99ZM173.931 93.2525H174.931V92.2525H173.931V93.2525ZM173.585 93.2525V92.2525H172.93L172.668 92.8523L173.585 93.2525ZM171.553 96.3224L170.817 95.6456L171.553 96.3224ZM168.252 98.6307L167.848 97.716L167.844 97.7178L168.252 98.6307ZM171.045 89.5593L171.667 90.3426L171.675 90.3365L171.045 89.5593ZM173.284 86.2585L174.222 86.6052L173.284 86.2585ZM173.284 76.2638L172.344 76.6048L172.348 76.6138L173.284 76.2638ZM171.045 73.0323L170.431 73.8217L170.438 73.8263L171.045 73.0323ZM163.982 73.0554L164.604 73.8387L163.982 73.0554ZM161.766 76.31L160.826 75.9691L160.823 75.9783L161.766 76.31ZM163.982 89.5593L163.347 90.3316L163.354 90.3372L163.361 90.3426L163.982 89.5593ZM163.613 98.5078C161.18 98.5078 158.989 97.881 157.015 96.6317L155.946 98.3215C158.25 99.7804 160.814 100.508 163.613 100.508V98.5078ZM157.015 96.6317C155.064 95.3964 153.472 93.5247 152.261 90.9563L150.452 91.8094C151.795 94.6576 153.619 96.8484 155.946 98.3215L157.015 96.6317ZM152.261 90.9563C151.064 88.4187 150.44 85.2125 150.44 81.2958H148.44C148.44 85.4118 149.094 88.9302 150.452 91.8094L152.261 90.9563ZM150.44 81.2958C150.44 77.2224 151.088 73.9551 152.323 71.4421L150.528 70.56C149.116 73.433 148.44 77.0288 148.44 81.2958H150.44ZM152.323 71.4421C153.579 68.8862 155.191 67.0539 157.136 65.8786L156.102 64.1669C153.769 65.5768 151.919 67.7301 150.528 70.56L152.323 71.4421ZM157.133 65.8802C159.135 64.6795 161.273 64.0838 163.567 64.0838V62.0838C160.905 62.0838 158.412 62.7808 156.104 64.1652L157.133 65.8802ZM163.567 64.0838C165.316 64.0838 166.75 64.3875 167.906 64.9518L168.784 63.1547C167.292 62.4264 165.542 62.0838 163.567 62.0838V64.0838ZM167.914 64.9559C169.127 65.5338 170.103 66.2687 170.865 67.1527L172.38 65.8473C171.418 64.7309 170.21 63.8346 168.775 63.1506L167.914 64.9559ZM170.865 67.1527C171.666 68.0829 172.26 69.032 172.661 69.9989L174.508 69.2334C174.016 68.0459 173.302 66.9176 172.38 65.8473L170.865 67.1527ZM173.585 70.6161H173.815V68.6161H173.585V70.6161ZM174.815 69.6161V51.7273H172.815V69.6161H174.815ZM173.815 52.7273H185.103V50.7273H173.815V52.7273ZM184.103 51.7273V99H186.103V51.7273H184.103ZM185.103 98H173.931V100H185.103V98ZM174.931 99V93.2525H172.931V99H174.931ZM173.931 92.2525H173.585V94.2525H173.931V92.2525ZM172.668 92.8523C172.239 93.8349 171.626 94.7661 170.817 95.6456L172.289 96.9992C173.235 95.9707 173.976 94.8552 174.501 93.6526L172.668 92.8523ZM170.817 95.6456C170.043 96.4872 169.061 97.1804 167.848 97.716L168.657 99.5454C170.091 98.9115 171.309 98.0658 172.289 96.9992L170.817 95.6456ZM167.844 97.7178C166.692 98.2328 165.291 98.5078 163.613 98.5078V100.508C165.505 100.508 167.197 100.198 168.661 99.5436L167.844 97.7178ZM167.537 91.7134C169.107 91.7134 170.502 91.2674 171.667 90.3426L170.424 88.776C169.65 89.39 168.706 89.7134 167.537 89.7134V91.7134ZM171.675 90.3365C172.811 89.417 173.65 88.1541 174.222 86.6052L172.346 85.9119C171.872 87.1944 171.219 88.132 170.416 88.7821L171.675 90.3365ZM174.222 86.6052C174.796 85.0535 175.069 83.2693 175.069 81.2727H173.069C173.069 83.0925 172.819 84.6321 172.346 85.9119L174.222 86.6052ZM175.069 81.2727C175.069 79.248 174.797 77.4539 174.221 75.9139L172.348 76.6138C172.819 77.8745 173.069 79.4196 173.069 81.2727H175.069ZM174.225 75.9229C173.665 74.3794 172.818 73.13 171.653 72.2383L170.438 73.8263C171.243 74.4426 171.888 75.3476 172.344 76.6048L174.225 75.9229ZM171.659 72.243C170.494 71.3367 169.102 70.9013 167.537 70.9013V72.9013C168.711 72.9013 169.658 73.2199 170.432 73.8217L171.659 72.243ZM167.537 70.9013C165.942 70.9013 164.53 71.3441 163.361 72.2721L164.604 73.8387C165.374 73.2279 166.331 72.9013 167.537 72.9013V70.9013ZM163.361 72.2721C162.219 73.1781 161.384 74.4303 160.826 75.9691L162.706 76.6509C163.164 75.3891 163.807 74.4715 164.604 73.8387L163.361 72.2721ZM160.823 75.9783C160.284 77.5107 160.028 79.2822 160.028 81.2727H162.028C162.028 79.4469 162.264 77.91 162.71 76.6418L160.823 75.9783ZM160.028 81.2727C160.028 83.2664 160.293 85.0474 160.848 86.5962L162.731 85.9209C162.271 84.6382 162.028 83.0953 162.028 81.2727H160.028ZM160.848 86.5962C161.404 88.1448 162.226 89.4096 163.347 90.3316L164.618 88.787C163.83 88.1394 163.191 87.2037 162.731 85.9209L160.848 86.5962ZM163.361 90.3426C164.53 91.2706 165.942 91.7134 167.537 91.7134V89.7134C166.331 89.7134 165.374 89.3868 164.604 88.776L163.361 90.3426ZM199.212 97.4766L198.729 98.3522L198.735 98.3554L199.212 97.4766ZM193.026 91.1751L192.139 91.6382L192.142 91.6441L193.026 91.1751ZM193.049 71.8089L193.933 72.2759L193.934 72.2739L193.049 71.8089ZM199.166 65.392L199.667 66.2575L199.67 66.2553L199.166 65.392ZM215.392 64.261L215.744 63.3247L215.392 64.261ZM224.372 73.4478L223.435 73.7982L223.436 73.8003L224.372 73.4478ZM225.641 83.9964V84.9964H226.641V83.9964H225.641ZM194.826 83.9964H193.826V84.9964H194.826V83.9964ZM194.826 77.4411V76.4411H193.826V77.4411H194.826ZM215.139 77.4411V78.4411H216.151L216.139 77.4282L215.139 77.4411ZM211.999 72.0398L211.508 72.9106L211.516 72.9153L211.524 72.9198L211.999 72.0398ZM205.305 72.0859L205.79 72.9608L205.8 72.955L205.305 72.0859ZM202.928 74.3711L203.781 74.8937L203.784 74.8876L202.928 74.3711ZM202.005 77.6257L201.005 77.6004L201.005 77.6131V77.6257H202.005ZM202.859 88.1051L201.972 88.5673L201.975 88.5724L202.859 88.1051ZM205.282 90.6211L204.785 91.4886L205.282 90.6211ZM211.745 91.1058L212.067 92.0527L211.745 91.1058ZM213.846 89.8825L214.523 90.618V90.618L213.846 89.8825ZM215.162 87.8974L215.191 86.8978L214.475 86.8771L214.225 87.5483L215.162 87.8974ZM225.526 88.1974L226.509 88.3798L226.722 87.2317L225.555 87.1979L225.526 88.1974ZM222.687 94.2681L221.924 93.6213L221.923 93.6219L222.687 94.2681ZM216.985 98.2614L217.356 99.1903L217.361 99.1882L216.985 98.2614ZM208.814 98.6694C205.237 98.6694 202.208 97.965 199.689 96.5977L198.735 98.3554C201.602 99.9119 204.974 100.669 208.814 100.669V98.6694ZM199.695 96.601C197.189 95.2184 195.265 93.2598 193.909 90.706L192.142 91.6441C193.679 94.5378 195.88 96.7802 198.729 98.3521L199.695 96.601ZM193.912 90.712C192.57 88.1439 191.879 85.0551 191.879 81.4112H189.879C189.879 85.3076 190.619 88.728 192.139 91.6381L193.912 90.712ZM191.879 81.4112C191.879 77.8819 192.575 74.847 193.933 72.2759L192.164 71.342C190.629 74.2491 189.879 77.6157 189.879 81.4112H191.879ZM193.934 72.2739C195.295 69.6824 197.203 67.6841 199.667 66.2575L198.665 64.5266C195.866 66.1469 193.695 68.4265 192.163 71.344L193.934 72.2739ZM199.67 66.2553C202.124 64.8203 205.044 64.0838 208.468 64.0838V62.0838C204.751 62.0838 201.47 62.8861 198.661 64.5288L199.67 66.2553ZM208.468 64.0838C210.887 64.0838 213.074 64.4597 215.041 65.1973L215.744 63.3247C213.525 62.4927 211.096 62.0838 208.468 62.0838V64.0838ZM215.041 65.1973C217.003 65.9331 218.688 67.0172 220.106 68.45L221.528 67.0429C219.899 65.3981 217.967 64.1585 215.744 63.3247L215.041 65.1973ZM220.106 68.45C221.519 69.8774 222.632 71.6532 223.435 73.7982L225.308 73.0974C224.418 70.7183 223.161 68.6932 221.528 67.0429L220.106 68.45ZM223.436 73.8003C224.232 75.9133 224.641 78.3677 224.641 81.1804H226.641C226.641 78.1763 226.204 75.4757 225.307 73.0953L223.436 73.8003ZM224.641 81.1804V83.9964H226.641V81.1804H224.641ZM225.641 82.9964H194.826V84.9964H225.641V82.9964ZM195.826 83.9964V77.4411H193.826V83.9964H195.826ZM194.826 78.4411H215.139V76.4411H194.826V78.4411ZM216.139 77.4282C216.121 76.0717 215.797 74.8281 215.146 73.7243L213.423 74.7409C213.88 75.5144 214.125 76.4099 214.139 77.4539L216.139 77.4282ZM215.146 73.7243C214.498 72.6271 213.602 71.7684 212.474 71.1597L211.524 72.9198C212.336 73.3575 212.963 73.9607 213.423 74.7409L215.146 73.7243ZM212.491 71.1689C211.367 70.5346 210.093 70.2319 208.699 70.2319V72.2319C209.797 72.2319 210.723 72.4678 211.508 72.9106L212.491 71.1689ZM208.699 70.2319C207.28 70.2319 205.976 70.5536 204.811 71.2169L205.8 72.955C206.635 72.4796 207.593 72.2319 208.699 72.2319V70.2319ZM204.821 71.2111C203.669 71.8491 202.748 72.7337 202.072 73.8546L203.784 74.8876C204.278 74.0696 204.941 73.4308 205.79 72.9607L204.821 71.2111ZM202.075 73.8485C201.391 74.9654 201.04 76.2246 201.005 77.6004L203.004 77.651C203.031 76.5954 203.296 75.6849 203.781 74.8937L202.075 73.8485ZM201.005 77.6257V84.2965H203.005V77.6257H201.005ZM201.005 84.2965C201.005 85.8759 201.316 87.3091 201.972 88.5673L203.746 87.643C203.262 86.716 203.005 85.6101 203.005 84.2965H201.005ZM201.975 88.5724C202.632 89.8151 203.573 90.7933 204.785 91.4886L205.78 89.7536C204.899 89.2486 204.225 88.5495 203.743 87.6378L201.975 88.5724ZM204.785 91.4886C206.01 92.1913 207.435 92.5213 209.022 92.5213V90.5213C207.715 90.5213 206.647 90.2511 205.78 89.7536L204.785 91.4886ZM209.022 92.5213C210.114 92.5213 211.133 92.37 212.067 92.0527L211.424 90.1589C210.727 90.3956 209.93 90.5213 209.022 90.5213V92.5213ZM212.067 92.0527C213.004 91.7346 213.828 91.2588 214.523 90.618L213.168 89.1469C212.695 89.5833 212.119 89.923 211.424 90.1589L212.067 92.0527ZM214.523 90.618C215.23 89.9671 215.754 89.1706 216.099 88.2465L214.225 87.5483C213.984 88.1937 213.631 88.7206 213.168 89.1469L214.523 90.618ZM215.133 88.897L225.497 89.197L225.555 87.1979L215.191 86.8978L215.133 88.897ZM224.542 88.0151C224.142 90.1755 223.268 92.0369 221.924 93.6213L223.449 94.915C225.029 93.0523 226.048 90.8667 226.509 88.3798L224.542 88.0151ZM221.923 93.6219C220.595 95.1907 218.834 96.433 216.61 97.3346L217.361 99.1882C219.845 98.1816 221.885 96.7618 223.45 94.9144L221.923 93.6219ZM216.615 97.3325C214.401 98.2151 211.807 98.6694 208.814 98.6694V100.669C212.007 100.669 214.86 100.185 217.356 99.1903L216.615 97.3325Z" fill="#8BCB98"/>
</g>
<defs>
<clipPath id="clip0_1_2">
<rect width="250" height="150" fill="white"/>
</clipPath>
</defs>
</svg>
